<?xml version="1.0" standalone="no"?>
<svg viewBox="0 0 200 200" xmlns="http://www.w3.org/2000/svg">
  <path fill="#FF0066" d="M31.4,-48.5C43.5,-41.1,57.9,-37.1,65.9,-27.7C74,-18.3,75.8,-3.6,71.4,8.6C67.1,20.8,56.6,30.4,48.2,44C39.8,57.5,33.5,75.1,23,77.9C12.6,80.7,-2.1,68.7,-13.3,59.1C-24.5,49.5,-32.3,42.1,-45.5,35C-58.7,27.8,-77.1,20.8,-82.8,9.3C-88.4,-2.1,-81.3,-18,-74.2,-34.1C-67.2,-50.3,-60.3,-66.7,-48,-73.9C-35.6,-81,-17.8,-78.9,-4.1,-72.6C9.7,-66.3,19.4,-55.8,31.4,-48.5Z" transform="translate(100 100)" />
</svg>
